# Blender 3.6.1
# www.blender.org
mtllib Basket.mtl
o Cube
v 1.000000 0.176387 -1.852211
v 1.000000 -0.176387 -1.852211
v 1.000000 0.176387 1.852211
v 1.000000 -0.176387 1.852211
v -1.000000 0.176387 -1.852211
v -1.000000 -0.176387 -1.852211
v -1.000000 0.176387 1.852211
v -1.000000 -0.176387 1.852211
v -1.467062 1.787054 -2.717309
v -1.467062 1.787054 2.717309
v 1.467062 1.787054 -2.717309
v 1.467062 2.304595 -2.717309
v -1.467062 2.304595 2.717309
v 1.467062 2.304595 2.717309
v 1.467062 1.787054 2.717309
v -1.467062 2.304595 -2.717309
v -1.595443 1.764410 -2.955098
v -1.595443 1.764410 2.955098
v 1.595443 1.764410 -2.955098
v 1.595443 2.327240 -2.955098
v -1.595443 2.327240 2.955098
v 1.595443 2.327240 2.955098
v 1.595443 1.764410 2.955098
v -1.595443 2.327240 -2.955098
vn -0.0000 1.0000 -0.0000
vn -0.0000 0.3766 -0.9264
vn -0.0000 -0.4032 0.9151
vn -0.0000 -1.0000 -0.0000
vn -0.0000 0.3766 0.9264
vn -0.0000 -0.4032 -0.9151
vn -0.1737 0.9848 -0.0000
vn 0.1737 0.9848 -0.0000
vn 0.1737 -0.9848 -0.0000
vn -0.1737 -0.9848 -0.0000
vn 0.9729 -0.2314 -0.0000
vn -0.9729 -0.2314 -0.0000
vn 0.9768 0.2144 -0.0000
vn -0.9768 0.2144 -0.0000
vn -0.0000 -0.0000 1.0000
vn -1.0000 -0.0000 -0.0000
vn 1.0000 -0.0000 -0.0000
vn -0.0000 -0.0000 -1.0000
vn -0.0000 -0.9955 0.0948
vn -0.0000 0.9955 0.0948
vn -0.0000 -0.9955 -0.0948
vn -0.0000 0.9955 -0.0948
vt 0.625000 0.500000
vt 0.875000 0.500000
vt 0.875000 0.750000
vt 0.625000 0.750000
vt 0.125000 0.750000
vt 0.375000 0.750000
vt 0.125000 0.500000
vt 0.375000 0.500000
vt 0.625000 1.000000
vt 0.375000 1.000000
vt 0.375000 0.000000
vt 0.625000 0.000000
vt 0.625000 0.250000
vt 0.375000 0.250000
s 0
usemtl Material
f 1/1/1 5/2/1 7/3/1 3/4/1
f 3/4/2 7/3/2 13/3/2 14/4/2
f 8/5/3 4/6/3 15/6/3 10/5/3
f 6/7/4 2/8/4 4/6/4 8/5/4
f 5/2/5 1/1/5 12/1/5 16/2/5
f 2/8/6 6/7/6 9/7/6 11/8/6
f 12/1/7 14/4/7 22/4/7 20/1/7
f 13/3/8 16/2/8 24/2/8 21/3/8
f 9/7/9 10/5/9 18/5/9 17/7/9
f 15/6/10 11/8/10 19/8/10 23/6/10
f 4/6/11 2/8/11 11/8/11 15/6/11
f 6/7/12 8/5/12 10/5/12 9/7/12
f 7/3/13 5/2/13 16/2/13 13/3/13
f 1/1/14 3/4/14 14/4/14 12/1/14
f 23/6/15 22/4/15 21/9/15 18/10/15
f 18/11/16 21/12/16 24/13/16 17/14/16
f 19/8/17 20/1/17 22/4/17 23/6/17
f 17/14/18 24/13/18 20/1/18 19/8/18
f 11/8/19 9/7/19 17/7/19 19/8/19
f 16/2/20 12/1/20 20/1/20 24/2/20
f 10/5/21 15/6/21 23/6/21 18/5/21
f 14/4/22 13/3/22 21/3/22 22/4/22
